<svg version="1.1" xmlns="http://www.w3.org/2000/svg" xmlns:xlink="http://www.w3.org/1999/xlink" width="26px" height="26px" viewBox="0,0,256,256"><g fill="#24a1d3" fill-rule="nonzero" stroke="none" stroke-width="1" stroke-linecap="butt" stroke-linejoin="miter" stroke-miterlimit="10" stroke-dasharray="" stroke-dashoffset="0" font-family="none" font-weight="none" font-size="none" text-anchor="none" style="mix-blend-mode: normal"><g transform="scale(9.84615,9.84615)"><path d="M0.3,14c-0.2,-0.2 -0.3,-0.5 -0.3,-0.7c0,-0.2 0.1,-0.5 0.3,-0.7l1.4,-1.4c0.4,-0.4 1,-0.4 1.4,0l0.1,0.1l5.5,5.9c0.2,0.2 0.5,0.2 0.7,0l13.4,-13.9h0.1v0c0.4,-0.4 1,-0.4 1.4,0l1.4,1.4c0.4,0.4 0.4,1 0,1.4v0l-16,16.6c-0.2,0.2 -0.4,0.3 -0.7,0.3c-0.3,0 -0.5,-0.1 -0.7,-0.3l-7.8,-8.4z"></path></g></g></svg>