<svg version="1.1" xmlns="http://www.w3.org/2000/svg" xmlns:xlink="http://www.w3.org/1999/xlink" width="1920px" height="359px" viewBox="0,0,256,47.8625"><g fill="none" fill-rule="nonzero" stroke="none" stroke-width="1" stroke-linecap="butt" stroke-linejoin="miter" stroke-miterlimit="10" stroke-dasharray="" stroke-dashoffset="0" font-family="none" font-weight="none" font-size="none" text-anchor="none" style="mix-blend-mode: normal"><g transform="translate(0,-0.00275) scale(0.13333,0.13333)"><path d="M298.86,90.2h-276.36v39.67h56.13v138.93h39.67v-138.93h180.56z" fill="#4c8bc8"></path><path d="M298.86,229.13h-97.76v-79.66h-39.67v119.33h39.67v0h97.76z" fill="#ffffff"></path><g fill="#ffffff"><g><path d="M407.37,122.5h-53.39v-29.63h148.16v29.63h-53.12v143.62h-41.65z"></path><path d="M526.16,92.87h132.14v29.63h-90.5v39.78h81.69v29.63h-81.69v44.58h93.17v29.63h-134.81z"></path><path d="M736.79,177.76l-61.13,-84.89h48.05l37.11,57.66l36.84,-57.66h48.05l-61.13,84.89l64.07,88.36h-48.32l-39.51,-61.4l-39.78,61.4h-48.05z"></path><path d="M869.73,92.87h41.64v69.41h73.68v-69.41h41.65v173.26h-41.65v-74.22h-73.68v74.22h-41.64z"></path><path d="M1115.73,266.93c-8.1,-1.24 -16.51,-3.38 -25.22,-6.41c-9.44,-3.2 -16.82,-8.41 -22.16,-15.61c-5.34,-7.21 -8.01,-15.97 -8.01,-26.3v-75.82c0,-8.54 1.91,-16.19 5.74,-22.96c3.83,-6.76 8.77,-12.1 14.82,-16.01c5.34,-3.38 11.92,-6.23 19.75,-8.54c7.83,-2.31 15.12,-3.74 21.89,-4.27c6.23,-0.54 12.81,-0.8 19.75,-0.8c8.18,0 15.3,0.32 21.35,0.94c6.05,0.63 12.81,1.91 20.29,3.87c8.54,2.49 15.57,5.52 21.09,9.08c5.51,3.56 10.14,8.54 13.88,14.95c3.91,6.59 5.87,14.51 5.87,23.76v75.82c0,9.61 -2.54,17.88 -7.61,24.82c-5.07,6.94 -12.06,12.19 -20.95,15.75c-16.02,6.41 -33.99,9.61 -53.92,9.61c-9.61,-0.01 -18.46,-0.64 -26.56,-1.88zM1157.64,238.5c4,-0.44 8.14,-1.29 12.41,-2.54c4.27,-1.24 7.52,-3.34 9.74,-6.27c2.22,-2.94 3.34,-6.63 3.34,-11.08v-76.09c0,-8.18 -3.3,-14.01 -9.88,-17.48c-6.58,-3.47 -16.82,-5.21 -30.7,-5.21c-13.88,0 -24.12,1.7 -30.7,5.07c-6.58,3.38 -9.88,9.26 -9.88,17.62v76.09c0,4.45 1.16,8.14 3.47,11.08c2.31,2.94 5.7,5.03 10.14,6.27c4.27,1.25 8.41,2.09 12.41,2.54c4,0.44 8.94,0.67 14.82,0.67c5.89,0 10.83,-0.23 14.83,-0.67z"></path><path d="M1314.08,267.73c-6.14,-0.71 -12.86,-2.04 -20.15,-4c-8.19,-2.13 -14.95,-4.94 -20.29,-8.41c-5.34,-3.47 -9.79,-8.32 -13.35,-14.55c-3.74,-6.23 -5.6,-13.61 -5.6,-22.15v-76.09c0,-34.88 26.78,-52.32 80.35,-52.32c13.7,0 32.04,1.96 54.99,5.87v31.24c-20.65,-4.98 -38.8,-7.48 -54.46,-7.48c-6.58,0 -11.7,0.18 -15.35,0.54c-3.65,0.36 -7.43,1.24 -11.35,2.67c-8.37,2.85 -12.55,9.17 -12.55,18.95v73.68c0,15.66 14.33,23.49 42.98,23.49c12.28,0 29.54,-2.58 51.79,-7.74v31.5c-19.04,3.91 -37.73,5.87 -56.06,5.87c-7.83,0 -14.81,-0.36 -20.95,-1.07z"></path><path d="M1417.79,92.87h132.14v29.63h-90.5v39.78h81.69v29.63h-81.69v44.58h93.17v29.63h-134.81z"></path><path d="M1620.67,122.5h-53.39v-29.63h148.16v29.63h-53.12v143.62h-41.65z"></path><path d="M1739.46,92.87h41.64v118.53l74.75,-118.53h41.65v173.26h-41.65v-120.4l-74.75,120.4h-41.64z"></path></g></g></g></g></svg>